# xmcd CD database file
#
# Track frame offsets:
#	150
#	39596
#	68307
#	86618
#	105272
#	128284
#	152874
#	170943
#	190063
#	206757
#	229917
#	252783
#	274724
#
# Disc length: 4012 seconds
#
# Revision: 5
# Processed by: cddbd v1.5.2PL0 Copyright (c) Steve Scherf et al.
# Submitted via: CDex 1.51
#
DISCID=a50faa0d
DTITLE=N'awlins Gumbo Kings - Live at UFO Saloon
DYEAR=2006
DGENRE=Jazz
TTITLE0=Things Ain't What They Used To Be
TTITLE1=When It's Sleepy Time Down South
TTITLE2=Opus One
TTITLE3=Bling Bling
TTITLE4=Lament
TTITLE5=Mr. Rebennack
TTITLE6=UFO Saloon
TTITLE7=Tin Roof Blues
TTITLE8=Margie
TTITLE9=Rue Dumaine
TTITLE10=Muscrat Ramble
TTITLE11=Willow Weep For Me
TTITLE12=Sweet Georgia Brown
EXTD=YEAR: 2006
EXTT0=
EXTT1=
EXTT2=
EXTT3=
EXTT4=
EXTT5=
EXTT6=
EXTT7=
EXTT8=
EXTT9=
EXTT10=
EXTT11=
EXTT12=
PLAYORDER=
